# xmcd CD database file
#
# Track frame offsets:
#	150
#	17709
#	43340
#	58672
#	81371
#	96861
#	116892
#	140581
#	162938
#
# Disc length: 2466 seconds
#
# Revision: 0
# Processed by: cddbd v1.5.1PL0 Copyright (c) Steve Scherf et al.
# Submitted via: CDex 1.51
#
DISCID=7e09a009
DTITLE=Guitars Unlimited - Three For The Road
DYEAR=1989
DGENRE=Jazz
TTITLE0=Xorinho Com X
TTITLE1=Tutu
TTITLE2=Flintstone's Theme
TTITLE3=Samba Do Bra
TTITLE4=O Bebado e a Equilibrista
TTITLE5=Got a Match
TTITLE6=Estate
TTITLE7=Lines
TTITLE8=Caravan
EXTD=YEAR: 1989
EXTT0=
EXTT1=
EXTT2=
EXTT3=
EXTT4=
EXTT5=
EXTT6=
EXTT7=
EXTT8=
PLAYORDER=
